<svg width="90" height="26" viewBox="0 0 90 26" fill="none" xmlns="http://www.w3.org/2000/svg">
<rect width="90" height="26" rx="13" fill="white"/>
<g clip-path="url(#clip0_3315_109783)">
<path d="M10.8333 7.79164V9.4583L12.7447 11.3083L14.9999 12.5833L15.4166 9.7781L14.9999 7.16664L13.8333 6.29164C12.5968 5.36455 10.8333 6.24685 10.8333 7.79164Z" fill="#C5221F"/>
<path d="M24.9999 7.16664L24.5833 9.81247L24.9999 12.5833L27.0468 11.5698L29.1666 9.4583V7.79164C29.1666 6.24685 27.403 5.36455 26.1666 6.29164L24.9999 7.16664Z" fill="#FFBA00"/>
<path d="M12.0833 19.6666H14.9999V12.5833L10.8333 9.45831V18.4166C10.8333 19.1073 11.3926 19.6666 12.0833 19.6666Z" fill="#2684FC"/>
<path d="M25 19.6666H27.9167C28.6073 19.6666 29.1667 19.1073 29.1667 18.4166V9.45831L25 12.5833V19.6666Z" fill="#00AC47"/>
<path d="M20 10.9166L15 7.16663V12.5833L20 16.3333L25 12.5833V7.16663L20 10.9166Z" fill="#E94235"/>
</g>
<path d="M50.25 13.75H45.75V18.25H44.25V13.75H39.75V12.25H44.25V7.75H45.75V12.25H50.25V13.75Z" fill="#9AA0A6"/>
<g clip-path="url(#clip1_3315_109783)">
<path d="M74.1665 8.83329L70.4165 8.41663L65.8332 8.83329L65.4165 13L65.8332 17.1666L69.9998 17.6875L74.1665 17.1666L74.5832 12.8958L74.1665 8.83329Z" fill="white"/>
<path d="M67.5427 15.2979C67.2313 15.0875 67.0157 14.7802 66.8979 14.3739L67.6209 14.076C67.6865 14.326 67.8011 14.5198 67.9646 14.6573C68.1271 14.7948 68.325 14.8625 68.5563 14.8625C68.7927 14.8625 68.9959 14.7906 69.1657 14.6468C69.3354 14.5031 69.4209 14.3198 69.4209 14.0979C69.4209 13.8708 69.3313 13.6854 69.1521 13.5416C68.9729 13.3979 68.7479 13.326 68.4792 13.326H68.0615V12.6104H68.4365C68.6677 12.6104 68.8625 12.5479 69.0209 12.4229C69.1792 12.2979 69.2584 12.127 69.2584 11.9093C69.2584 11.7156 69.1875 11.5614 69.0459 11.4458C68.9042 11.3302 68.725 11.2718 68.5073 11.2718C68.2948 11.2718 68.1261 11.3281 68.0011 11.4416C67.8761 11.5552 67.7854 11.6948 67.7282 11.8593L67.0125 11.5614C67.1073 11.2927 67.2813 11.0552 67.5365 10.85C67.7917 10.6448 68.1177 10.5416 68.5136 10.5416C68.8063 10.5416 69.0698 10.5979 69.3032 10.7114C69.5365 10.825 69.7198 10.9823 69.8521 11.1823C69.9844 11.3833 70.05 11.6083 70.05 11.8583C70.05 12.1135 69.9886 12.3291 69.8657 12.5062C69.7427 12.6833 69.5917 12.8187 69.4125 12.9135V12.9562C69.649 13.0552 69.8417 13.2062 69.9938 13.4093C70.1448 13.6125 70.2209 13.8552 70.2209 14.1385C70.2209 14.4218 70.149 14.675 70.0052 14.8968C69.8615 15.1187 69.6625 15.2937 69.4104 15.4208C69.1573 15.5479 68.8729 15.6125 68.5573 15.6125C68.1917 15.6135 67.8542 15.5083 67.5427 15.2979Z" fill="#2684FC"/>
<path d="M71.9792 11.7104L71.1896 12.2844L70.7927 11.6823L72.2167 10.6552H72.7625V15.5H71.9792V11.7104Z" fill="#2684FC"/>
<path d="M74.1666 20.9166L77.9166 17.1666V16.3333H74.1666V17.1666H73.3333V20.9166H74.1666Z" fill="#E94235"/>
<path d="M74.1667 17.1666H65V20.9166H74.1667V17.1666Z" fill="#00AC47"/>
<path d="M63.3333 5.08331C62.6426 5.08331 62.0833 5.64269 62.0833 6.33331V18H65.8333V8.83331H74.9999V5.08331H63.3333Z" fill="#2684FC"/>
<path d="M62.0833 17.1666V19.6666C62.0833 20.3573 62.6426 20.9166 63.3333 20.9166H65.8333V17.1666H62.0833Z" fill="#00832D"/>
<path d="M77.9165 8H74.1665V17.1667H77.9165V8Z" fill="#FFBA00"/>
<path d="M77.9165 8.83331V6.33331C77.9165 5.64269 77.3571 5.08331 76.6665 5.08331H74.1665V8.83331H77.9165Z" fill="#0066DA"/>
</g>
<defs>
<clipPath id="clip0_3315_109783">
<rect width="20" height="20" fill="white" transform="translate(10 3)"/>
</clipPath>
<clipPath id="clip1_3315_109783">
<rect width="20" height="20" fill="white" transform="translate(60 3)"/>
</clipPath>
</defs>
</svg>
